<svg width="16" height="16" viewBox="0 0 16 16" fill="none" xmlns="http://www.w3.org/2000/svg">
<path d="M8 15.9997C12.4183 15.9997 16 12.4181 16 7.99987C16 3.58166 12.4183 0 8 0C3.58172 0 0 3.58166 0 7.99987C0 12.4181 3.58172 15.9997 8 15.9997Z" fill="#FFD731"/>
<path d="M15.9997 8.00002C15.9997 12.4171 12.4168 15.9999 7.99969 15.9999C5.95969 15.9999 4.09683 15.2342 2.67969 13.9713C3.70826 14.5028 4.87969 14.7999 6.11397 14.7999C10.2797 14.7999 13.6568 11.4228 13.6568 7.25717C13.6568 3.81151 11.3425 0.902988 8.18254 0.00585938C12.514 0.0972865 15.9997 3.6458 15.9997 8.00002Z" fill="#FFC933"/>
<path d="M3.04746 3.38115C2.98632 3.38115 2.92461 3.35772 2.87718 3.31144C2.78175 3.21716 2.78061 3.06344 2.87432 2.96802C3.54461 2.28574 4.32861 1.75089 5.20461 1.38004C5.32746 1.32747 5.47089 1.38518 5.52289 1.50861C5.57546 1.63204 5.51775 1.77489 5.39432 1.82689C4.57718 2.17317 3.84632 2.67145 3.22118 3.30801C3.17375 3.35658 3.11032 3.38115 3.04746 3.38115ZM2.34918 4.212C2.30003 4.212 2.25089 4.19714 2.20746 4.16628C2.09889 4.088 2.07375 3.93657 2.15203 3.82743L2.19718 3.76515C2.27718 3.65772 2.42975 3.63543 2.53718 3.71486C2.64461 3.79486 2.66746 3.94686 2.58746 4.05486L2.54689 4.11086C2.49946 4.17714 2.42461 4.212 2.34918 4.212Z" fill="#FFE576"/>
<path d="M8.00098 13.607C11.0979 13.607 13.6084 11.0965 13.6084 7.99967C13.6084 4.90282 11.0979 2.39233 8.00098 2.39233C4.90409 2.39233 2.39355 4.90282 2.39355 7.99967C2.39355 11.0965 4.90409 13.607 8.00098 13.607Z" fill="#F8972C"/>
<path d="M13.6052 7.99966C13.6052 11.0968 11.0967 13.6053 7.99951 13.6053C6.53665 13.6053 5.21094 13.0453 4.21094 12.1367C4.81665 12.3482 5.46808 12.4624 6.14237 12.4624C9.33665 12.4624 11.9252 9.87392 11.9252 6.67968C11.9252 5.30828 11.4509 4.04544 10.6509 3.05688C12.4109 4.00544 13.6052 5.86255 13.6052 7.99966Z" fill="#ED8924"/>
<path d="M4.69052 5.12288C4.63109 5.12288 4.57109 5.10116 4.52366 5.05659C4.42595 4.96459 4.42137 4.81088 4.51337 4.71317C4.83337 4.37432 5.19909 4.08404 5.60137 3.85032C5.71795 3.78233 5.86595 3.82233 5.93337 3.93832C6.0008 4.05432 5.96137 4.20289 5.84537 4.27032C5.48366 4.48003 5.15452 4.74117 4.86709 5.04573C4.81966 5.09716 4.75509 5.12288 4.69052 5.12288Z" fill="#FFB476"/>
<path d="M8.26005 4.97011L9.08062 6.63294L10.9109 6.89865C11.1492 6.93351 11.2446 7.22664 11.072 7.39464L9.74748 8.68548L10.0612 10.5129C10.1018 10.7483 9.85433 10.9283 9.64291 10.8169L8.00176 9.95403L6.36062 10.8169C6.14919 10.9283 5.90176 10.7483 5.94233 10.5129L6.25605 8.68548L4.92805 7.39121C4.75719 7.22436 4.85148 6.93408 5.08805 6.89922L6.92291 6.63237L7.74348 4.96954C7.84862 4.75583 8.15433 4.75583 8.26005 4.97011Z" fill="#FFD731"/>
</svg>
