<svg width="18" height="18" viewBox="0 0 18 18" fill="none" xmlns="http://www.w3.org/2000/svg">
<g clip-path="url(#clip0_697_3115)">
<path d="M12.4607 13.1514C12.8481 12.7639 11.4981 10.7857 9.44523 8.73296C7.39239 6.68019 5.41416 5.33019 5.02672 5.71764C4.63928 6.1051 5.98935 8.08329 8.04219 10.1361C10.095 12.1888 12.0733 13.5388 12.4607 13.1514Z" fill="#FFFEFC"/>
<path d="M10.3497 12.1779C9.65617 11.6511 8.85411 10.9497 8.04146 10.137C5.98999 8.08291 4.63999 6.10556 5.02646 5.71644C5.38117 5.36438 7.04617 6.44703 8.88587 8.19144C7.8297 7.38938 7.0197 6.99233 6.78411 7.22527C6.39764 7.61438 7.74764 9.59174 9.79911 11.6432C9.9844 11.8285 10.167 12.0059 10.3497 12.1779Z" fill="#FF6699"/>
<path d="M12.2952 13.2181L11.0116 13.7186L8.76654 14.6008L6.25883 15.582L4.01134 16.4617L1.62504 17.3959C1.09727 17.6016 0.576886 17.0812 0.782563 16.5534L1.31285 15.1955L1.95463 13.5625L2.66827 11.7387L3.30759 10.1033L4.96039 5.8833C4.92571 6.51269 6.20186 8.29435 8.043 10.1355C9.8841 11.9766 11.6658 13.2527 12.2952 13.2181Z" fill="#66CCFF"/>
<path d="M4.96036 5.8833C4.94183 6.23536 5.33095 6.94477 5.998 7.82359L4.59771 11.3945L3.95977 13.0304L3.24506 14.8542L2.60447 16.4874L2.36359 17.1068L1.62506 17.3954C1.0983 17.6018 0.576828 17.0804 0.783298 16.5536L1.31271 15.1957L1.9533 13.5624L2.668 11.7386L3.30859 10.1027L4.96036 5.8833Z" fill="#767FAD"/>
<path d="M11.0112 13.7184L8.76626 14.6004L2.66797 11.7384L3.30723 10.103L11.0112 13.7184Z" fill="#FFBF66"/>
<path d="M6.25877 15.5819L4.01142 16.4618L1.31274 15.1955L1.95466 13.5625L6.25877 15.5819Z" fill="#FFBF66"/>
<path d="M3.47274 14.2746L3.2451 14.8543L2.83216 15.9078L1.31274 15.1957L1.95333 13.5625L3.47274 14.2746Z" fill="#EAA039"/>
<path d="M4.82532 10.8146L4.59767 11.3943L4.18473 12.4505L2.66797 11.7384L3.30856 10.1025L4.82532 10.8146Z" fill="#EAA039"/>
<path d="M4.82532 10.8146L4.59767 11.3943L4.18473 12.4505L2.66797 11.7384L3.30856 10.1025L4.82532 10.8146Z" fill="#EAA039"/>
<path d="M3.47274 14.2746L3.2451 14.8543L2.83216 15.9078L1.31274 15.1957L1.95333 13.5625L3.47274 14.2746Z" fill="#EAA039"/>
<path d="M15.8531 3.6284L15.8508 3.63068C15.258 3.03792 14.301 3.04017 13.7083 3.63293C14.0047 3.33656 14.154 2.94742 14.1517 2.56055C14.1517 2.17141 14.0047 1.78454 13.7083 1.48815L13.7106 1.4859C14.3033 2.07866 15.2603 2.08091 15.8531 1.48815C15.5567 1.78454 15.4096 2.17141 15.4074 2.55828C15.4096 2.94517 15.5567 3.33204 15.8531 3.6284ZM7.64294 2.40975L7.64098 2.41171C7.12869 1.89942 6.30159 1.90138 5.78931 2.41367C6.04546 2.15754 6.17451 1.8212 6.17255 1.48688C6.17255 1.15057 6.04546 0.816194 5.78931 0.560064L5.79127 0.558105C6.30355 1.07039 7.13065 1.07235 7.64294 0.560064C7.38678 0.816194 7.2597 1.15054 7.25774 1.48492C7.2597 1.81927 7.38678 2.15362 7.64294 2.40975Z" fill="#52CC99"/>
<path d="M15.6049 14.4157C15.2739 14.7466 14.7381 14.745 14.4072 14.414C14.0762 14.0831 14.0762 13.5489 14.4072 13.218C14.7381 12.887 15.2739 12.8854 15.6049 13.2163C15.9358 13.5473 15.9358 14.0847 15.6049 14.4157ZM17.0626 9.21254C16.7951 9.48002 16.362 9.4787 16.0945 9.21121C15.827 8.9437 15.827 8.51202 16.0945 8.24451C16.362 7.97702 16.7951 7.9757 17.0626 8.24318C17.3301 8.51069 17.3301 8.94505 17.0626 9.21254ZM3.51702 5.52338C3.21484 5.82557 2.72561 5.82409 2.42342 5.52187C2.12123 5.21969 2.12123 4.73199 2.42342 4.42978C2.72561 4.12759 3.21484 4.12611 3.51702 4.42829C3.81921 4.73048 3.81921 5.22119 3.51702 5.52338Z" fill="#FF8066"/>
<path d="M14.7325 9.88084C13.2951 8.73201 11.8075 9.38848 10.9578 9.97348C10.0842 8.96371 9.23131 8.11469 8.26309 7.27084C8.7925 6.39731 9.2478 5.04731 8.19954 3.73701C8.10954 3.62316 7.94277 3.60466 7.82895 3.69466C7.71248 3.78731 7.69395 3.95407 7.7866 4.0679C8.62307 5.11348 8.29483 6.19348 7.86336 6.92937C6.7066 5.96848 5.33542 5.03407 4.84042 5.52907C4.7533 5.61619 3.10652 9.88788 3.0616 10.0026C3.0616 10.0052 3.0616 10.0052 3.05895 10.0079L2.64071 11.08L1.42571 14.185L1.06571 15.0982C1.06571 15.1008 1.06571 15.1035 1.06571 15.1035L0.536302 16.4561C0.401302 16.8002 0.480714 17.1761 0.740126 17.4355C1.0065 17.7019 1.38596 17.7722 1.71954 17.642C8.8842 14.835 12.5645 13.4014 12.5645 13.4014C12.5672 13.4014 12.5698 13.3988 12.5725 13.3988C13.3143 12.8797 11.8709 11.0687 11.2939 10.3706C12.0193 9.87554 13.2342 9.35939 14.4042 10.2938C14.5181 10.3838 14.6848 10.3653 14.7748 10.2515C14.8675 10.1376 14.8463 9.97084 14.7325 9.88084ZM1.52898 17.1497C1.38074 17.2052 1.22721 17.1735 1.11603 17.0623C1.00486 16.9511 0.970446 16.7976 1.02868 16.6494L1.4575 15.5561L3.33956 16.4402L1.52898 17.1497ZM4.01986 16.1729L1.65074 15.0611L1.92603 14.357L2.09809 13.9229L5.58692 15.5588L4.01986 16.1729ZM6.26721 15.2941L2.28868 13.4279L2.81015 12.0991L8.09368 14.5767L6.26721 15.2941ZM10.169 13.7641L8.77397 14.312L3.00339 11.6041L3.23898 11.0032L3.45074 10.4632L10.341 13.6979L10.169 13.7641ZM11.0213 13.4305L3.64398 9.96819L4.93309 6.67525C4.93574 6.68054 4.93839 6.68584 4.94103 6.68848C5.50417 7.82645 6.96103 9.42845 7.85545 10.3229C8.74054 11.208 10.3708 12.6893 11.5004 13.2426L11.0213 13.4305ZM12.2654 12.9435L12.2469 12.9514C11.3779 12.9234 8.85918 10.5775 8.22868 9.94701C6.47636 8.2013 5.22427 6.44848 5.22427 5.9129C5.48898 5.89437 6.34662 6.3576 7.56692 7.37143C7.36045 7.64407 7.18309 7.81348 7.15927 7.83731C7.05074 7.9379 7.04809 8.10466 7.14603 8.21054C7.24681 8.31637 7.40857 8.32582 7.52192 8.22378C7.52721 8.21584 7.72574 8.0279 7.96665 7.71025C8.86104 8.49214 9.75924 9.39214 10.5369 10.2938C10.3569 10.4447 10.2537 10.5532 10.2484 10.5585C10.1478 10.667 10.1531 10.8338 10.259 10.9344C10.3612 11.0312 10.5288 11.0325 10.6349 10.9211C10.6481 10.9052 10.7355 10.8152 10.8758 10.6935C11.834 11.8661 12.276 12.6894 12.2654 12.9435Z" fill="#060606"/>
<path d="M10.1354 7.47617C10.1597 7.45317 12.5519 5.16386 10.8147 2.99039C10.7235 2.87638 10.5567 2.85727 10.4427 2.94877C10.3285 3.04002 10.3098 3.20649 10.4011 3.32077C11.8322 5.11139 9.85749 7.01037 9.77271 7.09023C9.66646 7.19053 9.66156 7.35803 9.76159 7.46429C9.86048 7.57006 10.0277 7.57676 10.1354 7.47617ZM11.9519 7.68582C13.0554 7.19053 13.9498 7.21819 14.6116 7.76957C14.7242 7.86328 14.8911 7.84758 14.9844 7.73545C15.0779 7.62327 15.0627 7.45627 14.9502 7.36269C14.1321 6.68102 13.0197 6.6257 11.7353 7.20294C11.6019 7.26292 11.5422 7.41958 11.6021 7.5527C11.6616 7.68582 11.8182 7.74551 11.9519 7.68582ZM13.5212 3.82042C13.6246 3.92382 13.7921 3.92382 13.8956 3.82042C14.3839 3.33236 15.1772 3.33133 15.664 3.81809C15.768 3.92162 15.9447 3.92429 16.0489 3.80671L16.051 3.80438C16.1443 3.69969 16.1394 3.54044 16.0404 3.44144C15.5477 2.94824 15.5538 2.16273 16.0404 1.67562C16.1438 1.57222 16.1438 1.40472 16.0404 1.3013C15.937 1.1979 15.7695 1.1979 15.666 1.3013C15.1795 1.78807 14.3865 1.78727 13.8979 1.29897C13.7948 1.19584 13.6249 1.19814 13.5212 1.3013C13.4183 1.40422 13.4175 1.57185 13.5212 1.67562C13.9978 2.15222 14.0227 2.94459 13.5212 3.4461C13.4178 3.54952 13.4178 3.71703 13.5212 3.82042ZM15.1922 2.14793C15.1286 2.41412 15.1251 2.6896 15.1925 2.97204C14.9228 2.90846 14.6405 2.9087 14.3704 2.97231C14.4352 2.69595 14.4301 2.4056 14.3686 2.14613C14.6395 2.21075 14.9218 2.21125 15.1922 2.14793ZM5.60229 2.60108C5.70569 2.70448 5.87319 2.70448 5.97661 2.60108C6.38479 2.19344 7.04732 2.1924 7.45396 2.59902C7.5522 2.69725 7.71065 2.70268 7.81534 2.61117L7.81738 2.60934C7.93231 2.50889 7.93869 2.33127 7.8303 2.22287C7.41762 1.8102 7.42434 1.1533 7.8303 0.747348C7.93369 0.643954 7.93369 0.476448 7.8303 0.373028C7.7269 0.269633 7.5594 0.269633 7.45598 0.373028C7.04883 0.780172 6.3863 0.778875 5.97863 0.371228C5.88039 0.272228 5.71961 0.269131 5.61518 0.360878C5.50025 0.461333 5.49387 0.638951 5.60227 0.747348C6.00044 1.14552 6.02145 1.80755 5.60227 2.22676C5.49887 2.33018 5.49887 2.49766 5.60229 2.60108ZM7.02456 1.17699C6.98424 1.37862 6.9821 1.58257 7.02482 1.79558C6.8219 1.75527 6.61199 1.755 6.40856 1.79585C6.44816 1.59266 6.44715 1.37793 6.407 1.1757C6.61045 1.21654 6.8206 1.21731 7.02456 1.17699ZM14.2202 13.0311C13.7852 13.4656 13.7853 14.1671 14.2202 14.6015C14.6535 15.0354 15.3578 15.0379 15.7922 14.6031C16.2259 14.1693 16.2259 13.4633 15.7922 13.0296C15.3588 12.5957 14.6546 12.5962 14.2202 13.0311ZM15.4179 14.2287C15.2036 14.443 14.8372 14.4698 14.5945 14.2272C14.3671 13.9998 14.3661 13.6338 14.5945 13.4054C14.8186 13.1813 15.187 13.173 15.4179 13.4038C15.6453 13.6314 15.6453 14.0013 15.4179 14.2287ZM17.2499 8.05625C16.8805 7.68685 16.2779 7.68735 15.9075 8.05754C15.5364 8.42858 15.5362 9.0274 15.9075 9.39865C16.2789 9.77014 16.8796 9.77069 17.2499 9.39995C17.6209 9.02886 17.6211 8.4275 17.2499 8.05625ZM16.8756 9.02563C16.7111 9.19006 16.4462 9.18877 16.2818 9.02433C16.1175 8.86011 16.1175 8.59606 16.2818 8.43184C16.4457 8.26788 16.7123 8.26724 16.8756 8.43054C17.0398 8.59477 17.0398 8.8614 16.8756 9.02563ZM3.70435 5.71085C4.10943 5.30577 4.10943 4.6466 3.70435 4.24152C3.30007 3.83723 2.64113 3.838 2.23632 4.24282C1.83203 4.6471 1.83203 5.305 2.23632 5.70929C2.64172 6.11468 3.30041 6.11479 3.70435 5.71085ZM2.61064 4.61714C2.80957 4.41821 3.13195 4.41773 3.33006 4.61584C3.52885 4.81463 3.52885 5.13776 3.33006 5.33655C3.1323 5.53455 2.80996 5.53352 2.61064 5.33499C2.41264 5.13699 2.41264 4.81514 2.61064 4.61714Z" fill="#060606"/>
</g>
<defs>
<clipPath id="clip0_697_3115">
<rect width="18" height="18" fill="white"/>
</clipPath>
</defs>
</svg>
