<svg width="35" height="35" viewBox="0 0 35 35" fill="none" xmlns="http://www.w3.org/2000/svg">
<g clip-path="url(#clip0_498_1403)">
<path d="M24.2288 25.5718C24.9822 24.8184 22.357 20.9719 18.3654 16.9804C14.3738 12.989 10.5272 10.3639 9.77386 11.1173C9.0205 11.8707 11.6456 15.7172 15.6373 19.7087C19.6289 23.7002 23.4755 26.3252 24.2288 25.5718Z" fill="white"/>
<path d="M20.1244 23.6804C18.7758 22.6562 17.2163 21.2922 15.6361 19.712C11.6472 15.7179 9.02215 11.8731 9.77362 11.1165C10.4633 10.4319 13.7008 12.537 17.278 15.929C15.2244 14.3694 13.6494 13.5973 13.1913 14.0503C12.4398 14.8069 15.0648 18.6518 19.0538 22.6407C19.4141 23.001 19.7692 23.3459 20.1244 23.6804Z" fill="#FF6699"/>
<path d="M23.9065 25.7015L21.4107 26.6747L17.0453 28.3901L12.1692 30.2981L7.79912 32.0086L3.1591 33.825C2.13288 34.225 1.12102 33.2132 1.52094 32.1869L2.55205 29.5464L3.79996 26.3712L5.18761 22.825L6.43072 19.6449L9.6445 11.4395C9.57707 12.6633 12.0585 16.1276 15.6385 19.7076C19.2184 23.2876 22.6827 25.7689 23.9065 25.7015Z" fill="#66CCFF"/>
<path d="M9.64483 11.4395C9.6088 12.124 10.3654 13.5034 11.6625 15.2122L8.93968 22.1556L7.69924 25.3365L6.30953 28.8828L5.06394 32.0586L4.59556 33.263L3.15953 33.824C2.13527 34.2255 1.1213 33.2115 1.52277 32.1872L2.55218 29.5468L3.79777 26.3711L5.18747 22.8247L6.43306 19.6439L9.64483 11.4395Z" fill="#767FAD"/>
<path d="M21.4108 26.6756L17.0455 28.3906L5.18774 22.8256L6.43076 19.6458L21.4108 26.6756Z" fill="#FFBF66"/>
<path d="M12.1692 30.2975L7.79931 32.0084L2.55188 29.5461L3.80004 26.3708L12.1692 30.2975Z" fill="#FFBF66"/>
<path d="M6.75237 27.7554L6.30972 28.8826L5.50678 30.9311L2.55237 29.5466L3.79796 26.3708L6.75237 27.7554Z" fill="#EAA039"/>
<path d="M9.3826 21.0286L8.93995 22.1558L8.13701 24.2095L5.18774 22.8249L6.43333 19.644L9.3826 21.0286Z" fill="#EAA039"/>
<path d="M9.3826 21.0286L8.93995 22.1558L8.13701 24.2095L5.18774 22.8249L6.43333 19.644L9.3826 21.0286Z" fill="#EAA039"/>
<path d="M6.75237 27.7554L6.30972 28.8826L5.50678 30.9311L2.55237 29.5466L3.79796 26.3708L6.75237 27.7554Z" fill="#EAA039"/>
<path d="M30.8255 7.0562L30.8211 7.06063C29.6685 5.90805 27.8077 5.91242 26.6551 7.06501C27.2314 6.48874 27.5217 5.73207 27.5173 4.97983C27.5173 4.22316 27.2314 3.47092 26.6551 2.8946L26.6595 2.89023C27.8121 4.04281 29.6729 4.04718 30.8255 2.8946C30.2492 3.47092 29.9632 4.22316 29.9589 4.9754C29.9632 5.7277 30.2492 6.47994 30.8255 7.0562ZM14.8614 4.6866L14.8576 4.69041C13.8614 3.6943 12.2532 3.69811 11.2571 4.69422C11.7552 4.19619 12.0061 3.5422 12.0023 2.89213C12.0023 2.2382 11.7552 1.58802 11.2571 1.08999L11.2609 1.08618C12.257 2.08229 13.8652 2.0861 14.8614 1.08999C14.3633 1.58802 14.1162 2.23814 14.1124 2.88832C14.1162 3.53845 14.3633 4.18857 14.8614 4.6866Z" fill="#F64C18"/>
<path d="M30.3429 28.0305C29.6994 28.6741 28.6576 28.6709 28.014 28.0274C27.3705 27.3838 27.3705 26.3452 28.0141 25.7017C28.6576 25.0582 29.6994 25.055 30.3429 25.6985C30.9864 26.3421 30.9864 27.387 30.3429 28.0305ZM33.1773 17.9133C32.6572 18.4334 31.8152 18.4309 31.2951 17.9108C30.7749 17.3906 30.7749 16.5512 31.2951 16.0311C31.8152 15.5109 32.6572 15.5084 33.1773 16.0285C33.6974 16.5486 33.6974 17.3932 33.1773 17.9133ZM6.83875 10.74C6.25117 11.3276 5.29989 11.3247 4.7123 10.737C4.12471 10.1495 4.12471 9.20116 4.7123 8.61352C5.29989 8.02593 6.25117 8.02305 6.83875 8.61064C7.42634 9.19823 7.42634 10.1524 6.83875 10.74Z" fill="#93D335"/>
<path d="M28.6473 19.2122C25.8524 16.9784 22.9598 18.2548 21.3076 19.3923C19.6089 17.4289 17.9506 15.778 16.0679 14.1372C17.0973 12.4387 17.9826 9.81367 15.9443 7.26587C15.7693 7.0445 15.4451 7.00852 15.2238 7.18352C14.9973 7.36367 14.9613 7.68793 15.1414 7.90925C16.7679 9.94234 16.1296 12.0423 15.2907 13.4732C13.0414 11.6048 10.3752 9.78793 9.41273 10.7504C9.24334 10.9198 6.04125 19.2259 5.9539 19.449C5.9539 19.4541 5.9539 19.4541 5.94876 19.4593L5.13552 21.5438L2.77302 27.5813L2.07302 29.357C2.07302 29.3622 2.07302 29.3673 2.07302 29.3673L1.04361 31.9975C0.78111 32.6666 0.935522 33.3975 1.43993 33.9019C1.95788 34.4199 2.69571 34.5565 3.34435 34.3034C17.2756 28.8453 24.4318 26.0578 24.4318 26.0578C24.4369 26.0578 24.4421 26.0527 24.4473 26.0527C25.8897 25.0432 23.0831 21.5219 21.9613 20.1645C23.3716 19.2019 25.7341 18.1983 28.0091 20.0152C28.2304 20.1902 28.5546 20.1542 28.7296 19.9328C28.9098 19.7115 28.8687 19.3872 28.6473 19.2122ZM2.97381 33.346C2.68557 33.4541 2.38704 33.3923 2.17087 33.1762C1.95469 32.96 1.88778 32.6615 2.00101 32.3732L2.83484 30.2475L6.4944 31.9666L2.97381 33.346ZM7.81719 31.4468L3.21057 29.285L3.74587 27.9159L4.08043 27.0718L10.8643 30.2526L7.81719 31.4468ZM12.187 29.7379L4.45101 26.1093L5.46498 23.5254L15.7385 28.3431L12.187 29.7379ZM19.7738 26.7629L17.0613 27.8284L5.84072 22.5629L6.29881 21.3945L6.71057 20.3445L20.1084 26.6343L19.7738 26.7629ZM21.4312 26.1144L7.08631 19.382L9.59293 12.9791C9.59807 12.9894 9.60322 12.9997 9.60837 13.0048C10.7034 15.2176 13.5361 18.3326 15.2753 20.0718C16.9963 21.7928 20.1662 24.6731 22.3628 25.749L21.4312 26.1144ZM23.8503 25.1673L23.8143 25.1828C22.1246 25.1282 17.227 20.5668 16.001 19.3409C12.5937 15.9464 10.1591 12.5382 10.1591 11.4968C10.6738 11.4607 12.3415 12.3615 14.7143 14.3328C14.3128 14.8629 13.9679 15.1923 13.9216 15.2387C13.7106 15.4343 13.7054 15.7585 13.8959 15.9644C14.0918 16.1702 14.4064 16.1886 14.6268 15.9901C14.637 15.9747 15.0231 15.6093 15.4915 14.9916C17.2306 16.5119 18.9771 18.2619 20.4893 20.0151C20.1393 20.3085 19.9386 20.5195 19.9283 20.5298C19.7327 20.7409 19.743 21.0651 19.9489 21.2607C20.1475 21.449 20.4736 21.4515 20.6797 21.235C20.7055 21.2041 20.8753 21.0291 21.1481 20.7923C23.0113 23.0725 23.8709 24.6732 23.8503 25.1673Z" fill="#060606"/>
<path d="M19.7075 14.5363C19.7548 14.4915 24.4062 10.0401 21.0285 5.81391C20.8511 5.59222 20.5268 5.55506 20.3052 5.733C20.083 5.91041 20.0468 6.23411 20.2243 6.45631C23.0069 9.93809 19.1672 13.6305 19.0023 13.7858C18.7957 13.9808 18.7862 14.3066 18.9807 14.5132C19.173 14.7188 19.4982 14.7319 19.7075 14.5363ZM23.2396 14.9439C25.3854 13.9808 27.1246 14.0346 28.4113 15.1068C28.6302 15.289 28.9547 15.2585 29.1361 15.0404C29.3181 14.8223 29.2884 14.4976 29.0698 14.3156C27.4789 12.9901 25.316 12.8826 22.8184 14.005C22.5591 14.1216 22.4429 14.4262 22.5596 14.6851C22.6751 14.9439 22.9797 15.06 23.2396 14.9439ZM26.2911 7.42787C26.4922 7.62891 26.8179 7.62891 27.019 7.42787C27.9685 6.47886 29.5111 6.47685 30.4576 7.42334C30.6599 7.62464 31.0034 7.62984 31.206 7.40121L31.21 7.39668C31.3915 7.19311 31.3819 6.88347 31.1894 6.69097C30.2315 5.73197 30.2433 4.20458 31.1894 3.25742C31.3905 3.05637 31.3905 2.73067 31.1894 2.52957C30.9884 2.32853 30.6627 2.32853 30.4616 2.52957C29.5156 3.47606 27.9735 3.47452 27.0235 2.52504C26.823 2.32451 26.4927 2.32899 26.2911 2.52957C26.091 2.72969 26.0894 3.05565 26.2911 3.25742C27.2179 4.18414 27.2663 5.72486 26.2911 6.70003C26.09 6.90112 26.09 7.22683 26.2911 7.42787ZM29.5402 4.1758C29.4166 4.69339 29.4098 5.22905 29.5407 5.77824C29.0165 5.65461 28.4676 5.65507 27.9423 5.77875C28.0683 5.2414 28.0584 4.67682 27.9388 4.1723C28.4656 4.29794 29.0144 4.29892 29.5402 4.1758ZM10.8932 5.05693C11.0942 5.25797 11.4199 5.25797 11.621 5.05693C12.4147 4.26428 13.703 4.26227 14.4937 5.05291C14.6847 5.24392 14.9928 5.25447 15.1963 5.07654L15.2003 5.07299C15.4238 4.87766 15.4362 4.53229 15.2254 4.32152C14.423 3.51909 14.4361 2.2418 15.2254 1.45244C15.4265 1.2514 15.4265 0.925695 15.2254 0.724599C15.0244 0.523555 14.6987 0.523555 14.4976 0.724599C13.7059 1.51627 12.4177 1.51375 11.625 0.721099C11.4339 0.528599 11.1213 0.522577 10.9183 0.700974C10.6948 0.896305 10.6824 1.24167 10.8931 1.45244C11.6674 2.22667 11.7082 3.51394 10.8931 4.32908C10.6921 4.53018 10.6921 4.85583 10.8932 5.05693ZM13.6587 2.28786C13.5803 2.67992 13.5762 3.0765 13.6592 3.49068C13.2647 3.41229 12.8565 3.41178 12.4609 3.49119C12.5379 3.09611 12.536 2.67858 12.4579 2.28534C12.8535 2.36476 13.2621 2.36625 13.6587 2.28786ZM27.6503 25.3375C26.8045 26.1823 26.8046 27.5465 27.6503 28.3911C28.4928 29.2347 29.8622 29.2397 30.7069 28.3941C31.5503 27.5507 31.5503 26.1779 30.7069 25.3345C29.8642 24.4908 28.4949 24.4919 27.6503 25.3375ZM29.979 27.6663C29.5624 28.0829 28.8499 28.1351 28.3781 27.6632C27.9359 27.221 27.934 26.5094 28.3781 26.0653C28.8139 25.6295 29.5301 25.6135 29.979 26.0623C30.4213 26.5047 30.4213 27.224 29.979 27.6663ZM33.5412 15.6642C32.823 14.9459 31.6513 14.9469 30.931 15.6667C30.2095 16.3882 30.2091 17.5525 30.931 18.2744C31.6533 18.9968 32.8214 18.9978 33.5412 18.2769C34.2628 17.5554 34.2631 16.3861 33.5412 15.6642ZM32.8134 17.5491C32.4937 17.8688 31.9786 17.8663 31.6589 17.5466C31.3395 17.2273 31.3395 16.7138 31.6589 16.3945C31.9777 16.0757 32.4959 16.0745 32.8134 16.392C33.1328 16.7113 33.1328 17.2298 32.8134 17.5491ZM7.20276 11.1037C7.99041 10.316 7.99041 9.03432 7.20276 8.24667C6.41665 7.46055 5.13539 7.46205 4.34825 8.24919C3.56214 9.0353 3.56214 10.3145 4.34825 11.1007C5.13652 11.8889 6.41732 11.8891 7.20276 11.1037ZM5.0761 8.97703C5.4629 8.59023 6.08976 8.5893 6.47496 8.97451C6.86151 9.36105 6.86151 9.98936 6.47496 10.3759C6.09043 10.7609 5.46367 10.7589 5.0761 10.3729C4.6911 9.98786 4.6911 9.36203 5.0761 8.97703Z" fill="white"/>
</g>
<defs>
<clipPath id="clip0_498_1403">
<rect width="35" height="35" fill="white"/>
</clipPath>
</defs>
</svg>
