<svg width="87" height="89" viewBox="0 0 87 89" fill="none" xmlns="http://www.w3.org/2000/svg">
<g filter="url(#filter0_d_493_611)">
<path d="M40.3189 3.1196C41.7955 4.09871 44.2117 4.09871 45.6861 3.1196L49.5854 0.528855C49.9349 0.295993 50.3274 0.135401 50.7399 0.056535C51.1524 -0.0223313 51.5765 -0.0178787 51.9872 0.0696306C52.3979 0.15714 52.787 0.325938 53.1316 0.566086C53.4761 0.806235 53.7691 1.11288 53.9933 1.46797L56.5015 5.42354C57.4505 6.91908 59.6564 7.9012 61.403 7.60579L66.0195 6.82362C66.4334 6.75274 66.8573 6.7654 67.2663 6.86085C67.6752 6.9563 68.0609 7.13261 68.4007 7.3794C68.7404 7.62619 69.0274 7.93848 69.2446 8.29786C69.4618 8.65724 69.6049 9.05645 69.6655 9.47199L70.35 14.0966C70.6098 15.8497 72.224 17.6471 73.9405 18.0892L78.4706 19.2575C78.8777 19.3621 79.2599 19.5469 79.5946 19.8012C79.9293 20.0555 80.2099 20.374 80.4198 20.7382C80.6297 21.1024 80.7648 21.5048 80.8171 21.9219C80.8693 22.339 80.8378 22.7623 80.7242 23.167L79.4695 27.6631C78.993 29.3694 79.7382 31.6677 81.1267 32.7694L84.8041 35.6865C85.1335 35.9472 85.4075 36.2711 85.6099 36.6393C85.8124 37.0074 85.9392 37.4123 85.9829 37.8302C86.0266 38.248 85.9863 38.6704 85.8645 39.0724C85.7426 39.4745 85.5415 39.8481 85.2732 40.1714L82.2877 43.7752C81.1585 45.14 80.9061 47.542 81.7261 49.1124L83.8942 53.2571C84.0893 53.6291 84.2082 54.0364 84.2437 54.455C84.2792 54.8736 84.2307 55.2951 84.1009 55.6947C83.9712 56.0943 83.7629 56.4639 83.4883 56.7818C83.2137 57.0997 82.8783 57.3595 82.5018 57.5459L78.3081 59.6276C76.7209 60.4158 75.5143 62.5081 75.6248 64.2763L75.9147 68.9448C75.9415 69.3642 75.8842 69.7847 75.7463 70.1817C75.6083 70.5786 75.3924 70.944 75.1112 71.2564C74.83 71.5687 74.4893 71.8217 74.1089 72.0005C73.7286 72.1793 73.3164 72.2803 72.8965 72.2975L68.2215 72.4953C66.4517 72.571 64.4982 73.9917 63.8794 75.6532L62.2531 80.0345C62.1073 80.4286 61.8842 80.7896 61.5969 81.0962C61.3096 81.4028 60.9639 81.6489 60.5801 81.82C60.1963 81.9911 59.7822 82.0837 59.3621 82.0925C58.942 82.1013 58.5243 82.026 58.1338 81.871L53.7783 80.1493C52.1318 79.497 49.769 79.9988 48.5289 81.2652L45.2578 84.6063C44.9641 84.9066 44.6134 85.1453 44.2262 85.3083C43.839 85.4713 43.4232 85.5554 43.0031 85.5555C42.583 85.5557 42.1671 85.472 41.7798 85.3092C41.3924 85.1465 41.0415 84.9081 40.7476 84.608L37.4714 81.2647C36.2304 79.9997 33.8676 79.4979 32.2203 80.1497L27.8669 81.8715C27.4765 82.0266 27.0589 82.102 26.6388 82.0933C26.2188 82.0846 25.8047 81.992 25.4209 81.8208C25.0372 81.6497 24.6916 81.4035 24.4044 81.0968C24.1173 80.7901 23.8944 80.4291 23.7488 80.0349L22.1187 75.6537C21.5008 73.9926 19.5473 72.5714 17.7766 72.4958L13.1033 72.298C12.6835 72.2805 12.2714 72.1794 11.8911 72.0006C11.5109 71.8217 11.1702 71.5687 10.8891 71.2564C10.6079 70.9441 10.392 70.5788 10.2539 70.1819C10.1159 69.7851 10.0585 69.3646 10.0852 68.9452L10.3776 64.2767C10.4876 62.509 9.27934 60.4162 7.69264 59.628L3.50015 57.5464C3.12361 57.36 2.78812 57.1003 2.51342 56.7824C2.23872 56.4645 2.03034 56.0949 1.90054 55.6953C1.77073 55.2957 1.72213 54.8742 1.75758 54.4556C1.79302 54.037 1.91181 53.6296 2.10695 53.2576L4.27501 49.1128C5.09545 47.5424 4.84304 45.1405 3.71214 43.7769L0.72665 40.1684C0.458346 39.8453 0.257357 39.4718 0.135505 39.07C0.0136524 38.6681 -0.0266024 38.2459 0.017108 37.8282C0.0608184 37.4105 0.187611 37.0058 0.390029 36.6379C0.592447 36.2699 0.866401 35.9461 1.19578 35.6856L4.874 32.7685C6.26161 31.6668 7.00766 29.3698 6.53165 27.6627L5.2739 23.1649C5.16031 22.7605 5.12871 22.3374 5.18095 21.9206C5.23319 21.5038 5.36822 21.1017 5.5781 20.7378C5.78798 20.374 6.06847 20.0557 6.4031 19.8018C6.73772 19.5479 7.11973 19.3634 7.52666 19.2592L12.0602 18.0883C13.7754 17.6467 15.3918 15.8493 15.6506 14.0962L16.3348 9.47156C16.3956 9.05604 16.5389 8.65687 16.7562 8.29754C16.9735 7.93822 17.2606 7.62599 17.6004 7.37922C17.9401 7.13246 18.3259 6.95614 18.7348 6.86065C19.1438 6.76516 19.5677 6.75243 19.9816 6.82319L24.5985 7.60536C26.3456 7.90077 28.5511 6.91865 29.4988 5.42311L32.0057 1.46754C32.23 1.11241 32.5231 0.805736 32.8678 0.565573C33.2124 0.325409 33.6016 0.156607 34.0125 0.0691014C34.4233 -0.0184046 34.8475 -0.0228471 35.2601 0.0560355C35.6727 0.134918 36.0653 0.295532 36.4149 0.528425L40.3189 3.1196Z" fill="#FFD65A"/>
</g>
<path d="M71.1078 42.3141C71.1078 57.681 58.6494 70.1381 43.2838 70.1381C27.919 70.1381 15.4607 57.681 15.4607 42.3141C15.4607 26.9519 27.9186 14.4944 43.2838 14.4944C58.6494 14.4944 71.1078 26.9519 71.1078 42.3141Z" fill="#FFB800"/>
<path d="M70.6246 42.3141C70.6246 57.4141 58.3826 69.6549 43.2838 69.6549C28.1859 69.6549 15.9438 57.4141 15.9438 42.3141C15.9438 27.2188 28.1854 14.9775 43.2838 14.9775C58.3826 14.9775 70.6246 27.2188 70.6246 42.3141Z" stroke="black" stroke-opacity="0.04" stroke-width="0.966291"/>
<path d="M45.5101 49.746V49.2629V33.1538C45.5101 31.5136 43.6426 30.563 42.3165 31.5274L45.5101 49.746ZM45.5101 49.746H45.9933M45.5101 49.746H45.9933M45.9933 49.746H49.3902C50.5008 49.746 51.401 50.6462 51.4006 51.7572V51.7574C51.4006 52.868 50.5004 53.7683 49.3897 53.7683H37.6078C36.4972 53.7683 35.5969 52.868 35.5969 51.7574C35.5969 50.6467 36.4972 49.7465 37.6078 49.7465H41.0047H41.4879V49.2633V38.052V37.103M45.9933 49.746L41.4879 37.103M41.4879 37.103L40.7205 37.6613M41.4879 37.103L40.7205 37.6613M40.7205 37.6613L38.9297 38.9641C38.9297 38.9641 38.9296 38.9641 38.9296 38.9642M40.7205 37.6613L38.9296 38.9642M38.9296 38.9642C38.0317 39.6169 36.7742 39.4185 36.1205 38.5205L38.9296 38.9642ZM36.5641 35.7114L42.3165 31.5275L36.1204 38.5204C35.4673 37.6225 35.6661 36.3646 36.5641 35.7114C36.5641 35.7114 36.5641 35.7114 36.5641 35.7114Z" fill="white" stroke="#543C01" stroke-width="0.966291"/>
<defs>
<filter id="filter0_d_493_611" x="0" y="0" width="86.9663" height="88.4543" filterUnits="userSpaceOnUse" color-interpolation-filters="sRGB">
<feFlood flood-opacity="0" result="BackgroundImageFix"/>
<feColorMatrix in="SourceAlpha" type="matrix" values="0 0 0 0 0 0 0 0 0 0 0 0 0 0 0 0 0 0 127 0" result="hardAlpha"/>
<feOffset dx="0.966291" dy="2.89887"/>
<feComposite in2="hardAlpha" operator="out"/>
<feColorMatrix type="matrix" values="0 0 0 0 0 0 0 0 0 0 0 0 0 0 0 0 0 0 1 0"/>
<feBlend mode="normal" in2="BackgroundImageFix" result="effect1_dropShadow_493_611"/>
<feBlend mode="normal" in="SourceGraphic" in2="effect1_dropShadow_493_611" result="shape"/>
</filter>
</defs>
</svg>
 