<svg width="300" height="300" viewBox="0 0 300 300" fill="none" xmlns="http://www.w3.org/2000/svg">
<g clip-path="url(#clip0_791_3966)">
<path d="M58.9541 153.568C58.707 156.775 57.0529 159.703 56.0696 162.779C52.4683 174.042 58.4589 186.473 67.6449 193.58C76.8309 200.687 88.5798 203.524 100.053 205.633C114.945 208.371 131.604 209.829 144.288 201.165C151.36 196.334 156.782 188.58 164.984 186.275C179.365 182.234 191.123 196.541 203.582 204.424C211.209 209.221 220.02 211.802 229.03 211.877C232.801 211.906 236.717 211.456 240.004 209.531C246.516 205.717 248.734 197.414 249.637 189.944C251.865 171.519 242.493 136.545 232.816 120.982C222.027 103.631 201.543 126.532 183.76 116.547C167.205 107.252 158.183 79.6355 139.192 82.3272C132.862 83.2245 126.725 85.4809 120.36 85.9803C99.6174 87.6079 76.8137 71.1491 59.8957 83.6063C50.58 90.4657 48.1353 103.667 50.0593 114.958C51.6057 124.033 55.386 132.465 58.5758 141.088C60.0456 145.098 60.1783 149.476 58.9541 153.568Z" fill="#F64C18" fill-opacity="0.1"/>
<path d="M198.937 226.414C198.829 225.106 198.708 223.794 198.565 222.478C197.067 208.526 193.496 194.356 184.119 184.063C180.723 180.341 176.652 177.232 173.621 173.207C170.586 169.182 168.68 163.791 170.457 159.076C171.952 155.113 175.643 152.505 178.856 149.749C187.301 142.455 193.418 132.842 196.45 122.104C196.896 120.359 197.176 118.576 197.284 116.779C190.345 118.479 176.535 120.474 156.179 119.639C137.456 118.871 123.763 118.374 115.159 117.206C116.502 140.714 124.904 149.093 126.841 150.821C130.21 153.825 137.661 158.534 140.964 160.78C146.597 164.608 140.219 175.004 135.74 178.462C130.307 182.658 127.334 184.649 122.331 189.353C108.685 202.196 109.523 226.329 112.065 229.201C117.972 235.876 125.735 238.259 132.31 238.694C154.467 240.157 177.347 239.199 197.35 229.554C199.461 228.537 198.996 227.12 198.937 226.414Z" fill="white" stroke="#231F20" stroke-width="1.08" stroke-linecap="round" stroke-linejoin="round"/>
<path d="M196.59 223.705C198.701 222.688 198.568 221.163 198.51 220.457C198.401 219.149 198.032 217.584 197.888 216.269C197.888 216.269 202.287 216.466 202.547 218.174C202.549 218.18 202.551 218.187 202.55 218.194C203.028 221.504 196.59 223.705 196.59 223.705Z" fill="#231F20" stroke="#231F20" stroke-width="1.08" stroke-linecap="round" stroke-linejoin="round"/>
<path d="M203.07 102.881C203.067 103.052 203.058 103.313 203.049 103.637C203.047 103.638 203.046 103.639 203.045 103.642C203.044 103.644 203.043 103.646 203.043 103.649C203.011 103.847 202.959 104.042 202.89 104.231C202.89 104.237 202.887 104.24 202.884 104.246C202.715 104.691 202.438 105.086 202.078 105.398C201.717 105.709 201.285 105.925 200.82 106.028C200.607 106.079 200.385 106.13 200.154 106.181C199.944 106.229 199.725 106.28 199.5 106.328C199.35 106.358 199.191 106.394 199.032 106.427C198.393 106.559 197.712 106.7 196.989 106.835C196.989 106.835 175.134 101.84 158.67 101.126C142.956 100.448 121.149 106.64 119.199 107.207C119.106 107.231 119.058 107.246 119.058 107.246C118.734 107.216 118.407 107.189 118.089 107.159C117.636 107.12 117.189 107.075 116.751 107.033C116.157 106.976 115.581 106.922 115.023 106.862C114.744 106.835 114.468 106.808 114.195 106.781C113.172 106.676 112.212 106.577 111.315 106.478C111.156 106.463 111.003 106.445 110.85 106.427C109.773 106.307 108.792 106.196 107.916 106.091C107.754 106.076 107.595 106.055 107.439 106.037C107.346 106.022 107.25 106.01 107.157 106.001C106.98 105.977 106.815 105.959 106.647 105.938C106.563 105.926 106.476 105.917 106.392 105.908C106.245 105.89 106.101 105.869 105.963 105.854C105.945 105.849 105.926 105.846 105.906 105.845C105.765 105.827 105.63 105.812 105.501 105.791C105.479 105.79 105.457 105.788 105.435 105.785C105.375 105.776 105.312 105.767 105.249 105.761C105.129 105.746 105.012 105.731 104.901 105.713C104.838 105.707 104.778 105.698 104.718 105.692C103.71 105.557 103.05 105.464 102.768 105.422C102.735 105.416 102.702 105.413 102.669 105.41C102.654 105.406 102.638 105.404 102.621 105.404C102.617 105.401 102.612 105.4 102.606 105.401C102.606 105.401 115.14 91.1326 155.733 91.0695C180.402 91.0305 194.676 96.6975 201.585 100.61C201.968 100.819 202.297 101.113 202.55 101.468C202.802 101.824 202.971 102.232 203.043 102.662C203.057 102.734 203.066 102.807 203.07 102.881Z" fill="white" stroke="#231F20" stroke-width="1.08" stroke-linecap="round" stroke-linejoin="round"/>
<path d="M200.154 106.181C196.128 107.615 189.048 107.753 186.501 108.335C164.223 110.261 141.54 109.352 119.199 107.207C121.149 106.64 142.956 100.448 158.67 101.126C175.134 101.84 196.989 106.835 196.989 106.835C197.712 106.7 198.393 106.559 199.032 106.427C199.191 106.394 199.35 106.358 199.5 106.328C199.725 106.28 199.944 106.229 200.154 106.181Z" fill="white" stroke="#231F20" stroke-width="1.08" stroke-linecap="round" stroke-linejoin="round"/>
<path d="M202.701 112.561C202.652 113.296 202.393 114.002 201.956 114.595C201.52 115.188 200.922 115.644 200.235 115.909C199.266 116.276 198.279 116.591 197.277 116.854C193.728 117.805 189.225 118.477 184.143 118.927C184.116 118.93 184.086 118.933 184.056 118.936C175.791 119.665 166.002 119.812 156.315 119.644C146.241 119.464 136.272 118.942 128.226 118.36C128.205 118.36 128.181 118.357 128.16 118.357C122.781 117.967 118.263 117.556 115.158 117.205C104.562 116.347 101.556 111.721 102.606 105.4C102.611 105.4 102.616 105.401 102.621 105.403C102.637 105.404 102.653 105.406 102.669 105.409C102.702 105.412 102.735 105.415 102.768 105.421C108.216 106.075 113.693 106.67 119.199 107.206C141.54 109.351 164.223 110.26 186.501 108.334C189.048 107.752 196.128 107.614 200.154 106.18C201.501 105.703 202.503 105.079 202.884 104.245C202.887 104.239 202.89 104.236 202.89 104.23C202.974 104.047 203.026 103.85 203.043 103.648C203.061 106.099 202.872 110.044 202.701 112.561ZM195.995 209.909C195.678 209.056 194.202 207.629 193.5 207.055C193.085 206.713 192.549 206.569 192.072 206.329C189.778 205.164 188.982 201.854 186.506 201.159C185.714 200.938 184.779 201 184.185 200.429C183.828 200.088 183.681 199.587 183.436 199.156C182.179 196.909 178.918 196.967 176.792 195.516C175.709 194.778 174.177 194.683 173.879 193.376L172.881 191.691C171.354 189.782 168.023 190.803 166.107 189.256C164.779 188.184 163.941 186.574 162.528 185.615C160.945 184.544 159.847 183.749 157.93 183.706C157.992 183.671 157.943 183.681 157.811 183.727C157.171 183.834 156.566 184.095 156.048 184.487C154.955 184.981 153.93 185.612 152.996 186.364C148.505 190.369 144.586 194.953 139.323 197.864C137.596 198.819 135.667 199.746 133.726 199.374C132.806 199.195 131.968 198.733 131.067 198.477C128.452 197.74 125.692 198.799 123.243 199.979C121.24 200.938 119.195 202.067 117.996 203.934C117.239 205.106 114.965 206.81 114.615 208.161C113.257 213.396 111.716 217.739 112.446 223.538C112.496 223.453 112.543 223.371 112.593 223.286C111.86 225.3 111.999 227.625 113.466 229.131C115.349 231.052 118.411 230.889 121.097 230.994C123.134 231.075 125.153 231.386 127.171 231.653C149.81 234.665 172.833 232.705 194.637 225.909C194.961 225.846 195.253 225.673 195.464 225.42C195.611 225.191 198.658 223.938 198.654 223.666C198.627 218.609 197.732 214.586 195.995 209.909Z" fill="white"/>
<path d="M131.261 207.747C131.414 207.439 131.56 207.126 131.708 206.815M133.344 204.324C133.554 204.126 133.777 203.945 134.013 203.78M135.532 202.939C135.8 202.819 136.073 202.706 136.349 202.596M144.913 197.125C145.383 196.763 145.872 196.428 146.379 196.121M153.283 188.642C153.335 188.511 153.386 188.38 153.439 188.25L153.439 188.25M202.701 112.561C202.652 113.296 202.393 114.002 201.956 114.595C201.52 115.188 200.922 115.644 200.235 115.909C199.266 116.276 198.279 116.591 197.277 116.854C193.728 117.805 189.225 118.477 184.143 118.927C184.116 118.93 184.086 118.933 184.056 118.936C175.791 119.665 166.002 119.812 156.315 119.644C146.241 119.464 136.272 118.942 128.226 118.36C128.205 118.36 128.181 118.357 128.16 118.357C122.781 117.967 118.263 117.556 115.158 117.205C104.562 116.347 101.556 111.721 102.606 105.4C102.611 105.4 102.616 105.401 102.621 105.403C102.637 105.404 102.653 105.406 102.669 105.409C102.702 105.412 102.735 105.415 102.768 105.421C108.216 106.075 113.693 106.67 119.199 107.206C141.54 109.351 164.223 110.26 186.501 108.334C189.048 107.752 196.128 107.614 200.154 106.18C201.501 105.703 202.503 105.079 202.884 104.245C202.887 104.239 202.89 104.236 202.89 104.23C202.974 104.047 203.026 103.85 203.043 103.648C203.061 106.099 202.872 110.044 202.701 112.561ZM195.995 209.909C195.678 209.056 194.202 207.629 193.5 207.055C193.085 206.713 192.549 206.569 192.072 206.329C189.778 205.164 188.982 201.854 186.506 201.159C185.714 200.938 184.779 201 184.185 200.429C183.828 200.088 183.681 199.587 183.436 199.156C182.179 196.909 178.918 196.967 176.792 195.516C175.709 194.778 174.177 194.683 173.879 193.376L172.881 191.691C171.354 189.782 168.023 190.803 166.107 189.256C164.779 188.184 163.941 186.574 162.528 185.615C160.945 184.544 159.847 183.749 157.93 183.706C157.992 183.671 157.942 183.681 157.811 183.727C157.171 183.834 156.566 184.095 156.048 184.487C154.955 184.981 153.93 185.612 152.996 186.364C148.505 190.369 144.586 194.953 139.323 197.864C137.596 198.819 135.667 199.746 133.726 199.374C132.806 199.195 131.968 198.733 131.067 198.477C128.452 197.74 125.692 198.799 123.243 199.979C121.24 200.938 119.195 202.067 117.996 203.934C117.239 205.106 114.965 206.81 114.615 208.161C113.257 213.396 111.716 217.739 112.446 223.538C112.496 223.453 112.543 223.371 112.593 223.286C111.86 225.3 111.999 227.625 113.466 229.131C115.349 231.052 118.411 230.889 121.097 230.994C123.134 231.075 125.153 231.386 127.171 231.653C149.81 234.665 172.833 232.705 194.637 225.909C194.961 225.846 195.253 225.673 195.464 225.42C195.611 225.191 198.658 223.938 198.654 223.666C198.627 218.609 197.732 214.586 195.995 209.909Z" stroke="#231F20" stroke-width="1.08" stroke-linecap="round" stroke-linejoin="round"/>
<path d="M198.564 235.205C189.019 241.471 166.125 245.995 152.363 245.995C138.596 245.995 117.84 243.547 113.357 239.882C107.386 234.998 109.736 222.214 109.736 222.214C115.643 228.89 125.734 232.049 132.309 232.484C154.467 233.947 177.346 232.989 197.35 223.344C197.35 223.344 203.028 221.504 202.55 218.194C202.682 218.64 204.624 231.227 198.564 235.205ZM178.856 149.749C156.975 162.123 133.113 153.617 125.275 149.226C135.981 160.195 151.2 160.884 156.608 168.857C156.692 168.979 156.81 169.074 156.947 169.13C157.084 169.186 157.235 169.201 157.381 169.173C157.526 169.144 157.66 169.074 157.767 168.971C157.873 168.868 157.947 168.736 157.98 168.592C159.947 160.005 166.259 159.979 178.856 149.749Z" fill="white" stroke="#231F20" stroke-width="1.08" stroke-linecap="round" stroke-linejoin="round"/>
<path d="M168.429 206.521C168.429 206.587 168.409 206.652 168.372 206.707C168.336 206.762 168.283 206.805 168.222 206.83C168.161 206.856 168.094 206.862 168.029 206.849C167.964 206.836 167.904 206.805 167.857 206.758C167.811 206.711 167.779 206.651 167.766 206.586C167.753 206.521 167.76 206.454 167.785 206.393C167.81 206.332 167.853 206.28 167.908 206.243C167.963 206.206 168.028 206.186 168.094 206.186C168.138 206.186 168.182 206.195 168.222 206.212C168.263 206.229 168.3 206.253 168.331 206.284C168.362 206.315 168.387 206.352 168.403 206.393C168.42 206.434 168.429 206.477 168.429 206.521ZM174.583 208.381C174.583 208.478 174.555 208.573 174.501 208.653C174.447 208.734 174.37 208.797 174.281 208.834C174.191 208.871 174.093 208.881 173.998 208.862C173.903 208.843 173.815 208.796 173.747 208.727C173.678 208.659 173.632 208.572 173.613 208.477C173.594 208.381 173.603 208.283 173.641 208.193C173.678 208.104 173.74 208.027 173.821 207.973C173.902 207.92 173.996 207.891 174.093 207.891C174.158 207.891 174.221 207.903 174.281 207.928C174.34 207.953 174.394 207.989 174.44 208.034C174.485 208.08 174.522 208.134 174.546 208.193C174.571 208.253 174.583 208.317 174.583 208.381ZM160.931 215.335C160.931 215.441 160.9 215.544 160.841 215.632C160.782 215.72 160.699 215.789 160.601 215.83C160.503 215.87 160.395 215.881 160.291 215.86C160.188 215.839 160.092 215.788 160.017 215.714C159.942 215.639 159.891 215.543 159.871 215.439C159.85 215.335 159.861 215.228 159.901 215.13C159.942 215.032 160.01 214.948 160.098 214.89C160.186 214.831 160.29 214.799 160.396 214.799C160.466 214.799 160.536 214.813 160.601 214.84C160.666 214.867 160.725 214.906 160.775 214.956C160.824 215.006 160.864 215.065 160.891 215.13C160.918 215.195 160.931 215.265 160.931 215.335ZM171.849 216.318C171.849 216.406 171.823 216.492 171.774 216.566C171.725 216.639 171.655 216.697 171.573 216.731C171.491 216.764 171.401 216.773 171.315 216.756C171.228 216.739 171.148 216.696 171.086 216.634C171.023 216.571 170.981 216.491 170.963 216.405C170.946 216.318 170.955 216.228 170.989 216.146C171.023 216.065 171.08 215.995 171.154 215.946C171.227 215.897 171.314 215.87 171.402 215.87C171.461 215.87 171.519 215.882 171.573 215.904C171.627 215.927 171.677 215.96 171.718 216.001C171.76 216.043 171.793 216.092 171.815 216.146C171.838 216.201 171.849 216.259 171.849 216.318ZM177.215 210.9C177.239 211.004 177.23 211.112 177.19 211.211C177.15 211.309 177.08 211.393 176.99 211.45C176.9 211.507 176.795 211.534 176.689 211.528C176.583 211.523 176.481 211.484 176.398 211.418C176.314 211.352 176.254 211.262 176.224 211.16C176.194 211.058 176.197 210.949 176.232 210.848C176.267 210.748 176.333 210.661 176.419 210.599C176.506 210.538 176.61 210.505 176.716 210.505C176.834 210.493 176.953 210.527 177.046 210.601C177.139 210.675 177.199 210.782 177.215 210.9ZM168.134 202.904C168.134 203.087 168.08 203.267 167.978 203.419C167.876 203.572 167.731 203.691 167.561 203.762C167.391 203.832 167.205 203.85 167.025 203.814C166.844 203.779 166.679 203.69 166.549 203.56C166.419 203.43 166.331 203.265 166.295 203.085C166.259 202.905 166.277 202.718 166.348 202.548C166.418 202.378 166.537 202.233 166.69 202.131C166.843 202.029 167.022 201.975 167.206 201.975C167.452 201.975 167.688 202.073 167.862 202.247C168.037 202.421 168.134 202.657 168.134 202.904ZM164.859 197.216C164.859 197.313 164.83 197.408 164.776 197.489C164.722 197.57 164.645 197.633 164.556 197.67C164.466 197.707 164.367 197.717 164.272 197.698C164.177 197.679 164.089 197.632 164.021 197.563C163.952 197.495 163.905 197.407 163.886 197.312C163.867 197.217 163.877 197.118 163.914 197.028C163.951 196.939 164.014 196.862 164.095 196.808C164.176 196.754 164.271 196.725 164.368 196.725C164.498 196.725 164.623 196.777 164.715 196.869C164.807 196.961 164.859 197.086 164.859 197.216ZM162.322 193.084C162.322 193.23 162.278 193.373 162.197 193.495C162.116 193.616 162 193.711 161.865 193.767C161.73 193.823 161.581 193.838 161.438 193.809C161.294 193.781 161.163 193.71 161.059 193.607C160.956 193.503 160.885 193.372 160.857 193.228C160.828 193.085 160.843 192.936 160.899 192.801C160.955 192.666 161.05 192.55 161.171 192.469C161.293 192.388 161.436 192.344 161.582 192.344C161.778 192.344 161.966 192.422 162.105 192.561C162.244 192.7 162.322 192.888 162.322 193.084ZM168.429 191.303C168.429 191.369 168.409 191.434 168.372 191.489C168.336 191.544 168.283 191.587 168.222 191.612C168.161 191.638 168.094 191.644 168.029 191.632C167.964 191.619 167.904 191.587 167.857 191.54C167.811 191.493 167.779 191.433 167.766 191.369C167.753 191.304 167.76 191.236 167.785 191.175C167.81 191.114 167.853 191.062 167.908 191.025C167.963 190.988 168.028 190.969 168.094 190.969C168.183 190.969 168.268 191.004 168.331 191.067C168.394 191.129 168.429 191.214 168.429 191.303ZM156.975 199.73C156.975 199.946 156.911 200.157 156.791 200.336C156.671 200.516 156.501 200.655 156.301 200.738C156.102 200.821 155.882 200.842 155.671 200.8C155.459 200.758 155.265 200.654 155.112 200.501C154.959 200.349 154.855 200.154 154.813 199.943C154.771 199.731 154.793 199.512 154.875 199.312C154.958 199.113 155.098 198.942 155.277 198.822C155.457 198.703 155.668 198.639 155.884 198.639C156.027 198.639 156.169 198.667 156.301 198.722C156.434 198.776 156.554 198.857 156.655 198.958C156.757 199.06 156.837 199.18 156.892 199.312C156.947 199.445 156.975 199.586 156.975 199.73ZM155.426 207.762C155.425 207.981 155.36 208.196 155.239 208.378C155.117 208.56 154.943 208.703 154.741 208.787C154.538 208.871 154.315 208.893 154.1 208.85C153.885 208.807 153.687 208.701 153.532 208.546C153.377 208.391 153.271 208.193 153.228 207.978C153.186 207.763 153.208 207.54 153.291 207.337C153.375 207.135 153.518 206.961 153.7 206.84C153.882 206.718 154.097 206.653 154.316 206.653C154.462 206.653 154.606 206.681 154.741 206.737C154.875 206.793 154.998 206.874 155.101 206.977C155.204 207.08 155.285 207.203 155.341 207.337C155.397 207.472 155.426 207.616 155.426 207.762Z" fill="#231F20"/>
<path d="M164.175 221.357C164.898 221.357 165.485 220.77 165.485 220.047C165.485 219.323 164.898 218.736 164.175 218.736C163.451 218.736 162.864 219.323 162.864 220.047C162.864 220.77 163.451 221.357 164.175 221.357Z" fill="#231F20"/>
<path d="M178.034 201.566C178.034 201.647 178.01 201.726 177.965 201.793C177.92 201.86 177.856 201.913 177.781 201.944C177.707 201.975 177.624 201.983 177.545 201.967C177.465 201.951 177.393 201.912 177.335 201.855C177.278 201.798 177.239 201.725 177.223 201.646C177.207 201.566 177.216 201.484 177.247 201.409C177.278 201.334 177.33 201.27 177.397 201.225C177.465 201.18 177.544 201.156 177.625 201.156C177.733 201.156 177.837 201.199 177.914 201.276C177.991 201.353 178.034 201.457 178.034 201.566ZM171.471 210.419C171.471 210.592 171.42 210.762 171.324 210.906C171.227 211.05 171.09 211.163 170.93 211.229C170.77 211.296 170.593 211.313 170.423 211.279C170.253 211.245 170.097 211.162 169.974 211.039C169.852 210.916 169.768 210.76 169.734 210.59C169.7 210.42 169.718 210.244 169.784 210.083C169.85 209.923 169.963 209.786 170.107 209.69C170.251 209.593 170.421 209.542 170.594 209.542C170.71 209.542 170.824 209.565 170.93 209.609C171.036 209.653 171.133 209.717 171.215 209.799C171.296 209.88 171.361 209.977 171.405 210.083C171.449 210.19 171.471 210.304 171.471 210.419ZM160.012 159.446C159.948 159.429 159.891 159.393 159.847 159.344C159.803 159.294 159.775 159.232 159.767 159.167C159.758 159.101 159.769 159.034 159.798 158.975C159.827 158.916 159.874 158.866 159.931 158.833C159.988 158.8 160.054 158.785 160.12 158.789C160.186 158.793 160.249 158.817 160.302 158.857C160.355 158.897 160.394 158.952 160.415 159.015C160.437 159.078 160.439 159.145 160.422 159.209C160.41 159.252 160.391 159.291 160.364 159.326C160.337 159.361 160.304 159.391 160.266 159.413C160.228 159.435 160.186 159.449 160.142 159.455C160.099 159.46 160.054 159.458 160.012 159.446ZM156.627 164.913C156.533 164.888 156.449 164.835 156.385 164.762C156.321 164.69 156.28 164.599 156.268 164.503C156.255 164.407 156.271 164.31 156.314 164.223C156.357 164.136 156.424 164.063 156.508 164.015C156.592 163.966 156.688 163.944 156.785 163.95C156.882 163.956 156.975 163.991 157.052 164.05C157.129 164.109 157.186 164.189 157.218 164.281C157.249 164.373 157.252 164.472 157.227 164.565C157.194 164.691 157.111 164.798 156.999 164.863C156.886 164.928 156.753 164.946 156.627 164.913ZM149.665 160.223C149.579 160.2 149.503 160.152 149.444 160.086C149.386 160.02 149.348 159.937 149.337 159.85C149.325 159.762 149.34 159.673 149.379 159.593C149.418 159.514 149.48 159.448 149.556 159.404C149.633 159.36 149.721 159.339 149.809 159.345C149.897 159.35 149.982 159.382 150.052 159.436C150.122 159.49 150.175 159.563 150.203 159.647C150.232 159.731 150.235 159.821 150.212 159.906C150.182 160.021 150.107 160.119 150.004 160.178C149.901 160.237 149.779 160.253 149.665 160.223ZM151.749 167.557C151.643 167.554 151.54 167.518 151.456 167.454C151.371 167.389 151.308 167.3 151.276 167.199C151.245 167.097 151.245 166.989 151.278 166.887C151.311 166.786 151.374 166.698 151.46 166.634C151.545 166.571 151.648 166.536 151.754 166.533C151.86 166.531 151.965 166.562 152.053 166.622C152.141 166.681 152.208 166.767 152.245 166.867C152.282 166.966 152.287 167.075 152.26 167.178C152.241 167.295 152.177 167.4 152.082 167.471C151.986 167.542 151.867 167.573 151.749 167.557ZM163.583 160.095C163.406 160.048 163.246 159.949 163.125 159.811C163.004 159.673 162.926 159.502 162.902 159.32C162.878 159.138 162.908 158.953 162.989 158.788C163.071 158.623 163.199 158.486 163.358 158.394C163.517 158.302 163.699 158.259 163.883 158.271C164.066 158.283 164.242 158.349 164.387 158.461C164.533 158.572 164.643 158.725 164.702 158.899C164.761 159.073 164.767 159.26 164.72 159.438C164.688 159.555 164.634 159.666 164.56 159.763C164.486 159.859 164.393 159.941 164.288 160.002C164.182 160.063 164.066 160.103 163.945 160.119C163.824 160.135 163.701 160.127 163.583 160.095ZM161.769 177.684C161.518 177.618 161.293 177.478 161.122 177.283C160.951 177.089 160.842 176.848 160.808 176.591C160.774 176.334 160.817 176.072 160.931 175.84C161.046 175.607 161.226 175.414 161.451 175.284C161.675 175.155 161.933 175.094 162.191 175.111C162.45 175.128 162.698 175.221 162.904 175.378C163.109 175.536 163.264 175.751 163.347 175.996C163.431 176.242 163.44 176.506 163.373 176.757C163.328 176.923 163.252 177.079 163.147 177.215C163.042 177.352 162.912 177.467 162.763 177.553C162.614 177.639 162.449 177.695 162.279 177.717C162.108 177.74 161.935 177.729 161.769 177.684Z" fill="#231F20"/>
<path d="M161.606 176.708C161.527 176.687 161.457 176.644 161.404 176.583C161.35 176.522 161.316 176.447 161.306 176.367C161.295 176.286 161.308 176.205 161.344 176.132C161.38 176.059 161.436 175.999 161.506 175.958C161.576 175.918 161.657 175.899 161.738 175.904C161.818 175.91 161.896 175.939 161.96 175.988C162.024 176.037 162.073 176.104 162.099 176.181C162.125 176.258 162.128 176.34 162.107 176.418C162.079 176.523 162.01 176.613 161.916 176.667C161.822 176.721 161.711 176.736 161.606 176.708ZM155.461 161.379C155.294 161.334 155.143 161.241 155.029 161.111C154.914 160.98 154.841 160.819 154.818 160.647C154.795 160.475 154.824 160.3 154.901 160.145C154.977 159.989 155.098 159.86 155.248 159.773C155.399 159.686 155.571 159.645 155.744 159.657C155.917 159.668 156.083 159.73 156.221 159.836C156.359 159.941 156.462 160.085 156.518 160.249C156.574 160.413 156.58 160.591 156.535 160.758C156.505 160.869 156.454 160.974 156.384 161.065C156.314 161.157 156.226 161.233 156.127 161.291C156.027 161.349 155.917 161.386 155.803 161.401C155.689 161.416 155.573 161.409 155.461 161.379Z" fill="#231F20"/>
<path d="M195.614 206.186C195.614 206.186 197.456 213.153 197.888 216.269L195.614 206.186ZM159.238 173.851C159.238 174.022 159.147 174.161 159.035 174.161C158.924 174.161 158.833 174.022 158.833 173.851C158.833 173.68 158.924 173.542 159.035 173.542C159.147 173.542 159.238 173.68 159.238 173.851Z" fill="white"/>
<path d="M195.614 206.186C195.614 206.186 197.456 213.153 197.888 216.269M159.238 173.851C159.238 174.022 159.147 174.161 159.035 174.161C158.924 174.161 158.833 174.022 158.833 173.851C158.833 173.68 158.924 173.542 159.035 173.542C159.147 173.542 159.238 173.68 159.238 173.851Z" stroke="#231F20" stroke-width="1.08" stroke-linecap="round" stroke-linejoin="round"/>
<path d="M157.409 174.035C157.603 174.035 157.759 173.878 157.759 173.685C157.759 173.492 157.603 173.335 157.409 173.335C157.216 173.335 157.06 173.492 157.06 173.685C157.06 173.878 157.216 174.035 157.409 174.035Z" fill="white" stroke="#231F20" stroke-width="1.08" stroke-linecap="round" stroke-linejoin="round"/>
<path d="M155.741 170.647C155.741 170.718 155.72 170.788 155.68 170.847C155.64 170.907 155.584 170.953 155.518 170.98C155.452 171.008 155.379 171.015 155.309 171.001C155.239 170.987 155.175 170.953 155.124 170.902C155.074 170.852 155.039 170.787 155.025 170.717C155.012 170.647 155.019 170.575 155.046 170.509C155.073 170.443 155.12 170.386 155.179 170.347C155.238 170.307 155.308 170.286 155.38 170.286C155.427 170.286 155.474 170.295 155.518 170.313C155.562 170.331 155.602 170.358 155.635 170.391C155.669 170.425 155.695 170.465 155.713 170.509C155.732 170.552 155.741 170.599 155.741 170.647Z" fill="white" stroke="#231F20" stroke-width="1.08" stroke-linecap="round" stroke-linejoin="round"/>
<path d="M155.088 176.087C155.189 176.087 155.271 176.005 155.271 175.903C155.271 175.802 155.189 175.72 155.088 175.72C154.986 175.72 154.904 175.802 154.904 175.903C154.904 176.005 154.986 176.087 155.088 176.087Z" fill="white" stroke="#231F20" stroke-width="1.08" stroke-linecap="round" stroke-linejoin="round"/>
<path d="M159.035 178.151C159.035 178.315 158.798 178.449 158.506 178.449C158.214 178.449 157.977 178.315 157.977 178.151C157.977 177.986 158.214 177.853 158.506 177.853C158.798 177.853 159.035 177.986 159.035 178.151ZM161.302 181.2C161.302 181.314 161.24 181.407 161.164 181.407C161.088 181.407 161.026 181.314 161.026 181.2C161.026 181.086 161.088 180.994 161.164 180.994C161.24 180.994 161.302 181.086 161.302 181.2ZM155.088 180.971C155.088 181.212 154.985 181.407 154.858 181.407C154.732 181.407 154.629 181.212 154.629 180.971C154.629 180.73 154.732 180.535 154.858 180.535C154.985 180.535 155.088 180.73 155.088 180.971Z" fill="white" stroke="#231F20" stroke-width="1.08" stroke-linecap="round" stroke-linejoin="round"/>
<path d="M72.2088 230.59C70.1556 228.227 68.7002 226.228 68.6963 225.393C68.6924 224.159 69.3289 222.634 70.2294 221.124C70.2294 221.124 75.4418 224.877 72.2088 230.59Z" fill="white" stroke="#231F20" stroke-width="1.08" stroke-linecap="round" stroke-linejoin="round"/>
<path d="M88.5719 240.759C88.5137 242.362 86.7943 243.251 85.2651 243.014C84.2133 242.851 76.7537 235.822 72.2089 230.59C75.4419 224.877 70.2295 221.124 70.2295 221.124C71.3758 219.253 72.7327 217.52 74.2737 215.958C74.2737 215.958 87.3842 221.776 87.3842 223.674C87.3842 225.572 88.634 239.156 88.5719 240.759Z" fill="#231F20" stroke="#231F20" stroke-width="1.08" stroke-linecap="round" stroke-linejoin="round"/>
<path d="M85.2656 229.774C85.2656 229.774 87.7319 228.924 89.4627 230.418M85.6656 232.275C85.6656 232.275 87.9201 231.445 89.4627 232.513" stroke="#F45D4A" stroke-width="1.08" stroke-linecap="round" stroke-linejoin="round"/>
<path d="M101.089 233.586C99.9399 232.538 99.2024 231.735 99.1326 231.37C98.9308 230.334 99.8933 227.811 100.763 225.832C100.763 225.832 104.198 230.283 101.089 233.586Z" fill="white" stroke="#231F20" stroke-width="1.08" stroke-linecap="round" stroke-linejoin="round"/>
<path d="M118.313 245.921C116.714 245.816 105.649 237.751 101.089 233.587C104.198 230.284 100.763 225.832 100.763 225.832C101.422 224.33 102.024 223.138 102.024 223.138C102.024 223.138 117.999 226.608 118.177 226.965C118.356 227.322 122.451 238.714 123.339 241.873C124.228 245.032 120.316 246.057 118.313 245.921Z" fill="#231F20" stroke="#231F20" stroke-width="1.08" stroke-linecap="round" stroke-linejoin="round"/>
<path d="M117.912 232.928C117.912 232.928 121.561 231.816 122.495 232.928M118.491 235.687C118.491 235.687 121.294 234.397 122.896 235.687" stroke="#F45D4A" stroke-width="1.08" stroke-linecap="round" stroke-linejoin="round"/>
<path d="M75.1066 158.931C76.9197 148.234 78.3578 140.442 78.3578 140.442L91.4807 133.61L116.399 136.102L122.896 147.699C122.896 147.699 125.378 229.159 123.469 229.976C121.561 230.792 96.6759 231.324 97.1764 225.832C100.763 186.473 97.8985 173.836 97.8985 173.836C99.2943 179.531 93.9842 205.152 93.8622 225.857C93.8539 227.262 91.4545 227.245 89.7898 227.084C84.039 226.53 72.1487 221.649 68.6972 219.579C65.8672 217.881 70.5422 186.346 74.322 163.604" fill="white"/>
<path d="M75.1066 158.931C76.9197 148.234 78.3578 140.442 78.3578 140.442L91.4807 133.61L116.399 136.102L122.896 147.699C122.896 147.699 125.378 229.159 123.469 229.976C121.561 230.792 96.6759 231.324 97.1764 225.832C100.763 186.473 97.8985 173.836 97.8985 173.836C99.2943 179.531 93.9842 205.152 93.8622 225.857C93.8539 227.262 91.4545 227.245 89.7898 227.084C84.039 226.53 72.1487 221.649 68.6972 219.579C65.8672 217.881 70.5422 186.346 74.322 163.604" stroke="#231F20" stroke-width="1.08" stroke-linecap="round" stroke-linejoin="round"/>
<path d="M94.5468 148.824C94.5468 148.824 94.2709 158.873 97.8987 173.835" stroke="#231F20" stroke-width="1.08" stroke-linecap="round" stroke-linejoin="round"/>
<path d="M71.4567 190.389C71.4567 190.389 75.864 195.229 74.5715 202.848C73.3033 210.323 69.165 210.323 69.165 210.323M89.4114 145.165C89.4114 145.165 86.8417 153.611 77.5417 151.654M95.1738 166.749C95.1738 166.749 86.3983 176.216 96.2862 185.294M123.007 214.594C123.007 214.594 112.843 214.988 111.76 229.205M121.928 154.308C121.928 154.308 115.345 153.712 115.331 159.952C115.318 165.615 122.228 166.337 122.228 166.337" stroke="#F45D4A" stroke-width="1.08" stroke-linecap="round" stroke-linejoin="round"/>
<path d="M171.409 69.3797C168.696 70.4586 166.01 70.9283 164.384 69.8454L164.345 69.8221C163.938 69.5409 163.605 69.1654 163.375 68.7276C162.226 66.5852 165.975 63.7365 167.465 63.1077C168.568 62.6459 171.261 61.7804 173.136 62.2577C173.481 62.3277 173.806 62.4714 174.09 62.6791C174.374 62.8868 174.61 63.1535 174.781 63.4609C175.915 65.6033 174.195 68.2658 171.409 69.3797Z" fill="#231F20" stroke="#231F20" stroke-width="1.08" stroke-linecap="round" stroke-linejoin="round"/>
<path d="M174.059 73.0248C175.632 70.4602 173.727 68.1897 172.284 67.3764C170.924 66.6851 169.425 66.3133 167.899 66.2894C165.979 66.2894 165.472 64.3804 165.472 64.3804C165.472 64.3804 164.064 65.4639 163.697 66.2894C163.491 66.7531 163.938 68.2135 164.695 69.1878C165.278 69.9395 168.945 70.8388 168.962 72.8298C168.977 74.5066 170.357 75.8118 170.231 77.4828C170.108 79.1508 169.616 81.4218 170.618 82.7628C170.828 81.1308 171.368 79.5618 172.439 78.3348C172.988 77.7078 173.672 77.1768 174.047 76.4358C174.572 75.3948 173.45 74.0183 174.059 73.0248Z" fill="white" stroke="#231F20" stroke-width="1.08" stroke-linecap="round" stroke-linejoin="round"/>
<path d="M173.136 62.2577C171.261 61.7803 168.568 62.6458 167.465 63.1077C165.975 63.7365 162.226 66.5852 163.375 68.7276C163.605 69.1654 163.938 69.5409 164.345 69.8221L151.456 62.5901C151.158 62.4224 150.906 62.1813 150.727 61.8896C150.547 61.5978 150.444 61.2651 150.429 60.9227C150.413 60.5804 150.485 60.2398 150.638 59.933C150.791 59.6262 151.019 59.3634 151.302 59.1694L152.67 58.2294C153.301 57.7964 154.02 57.5092 154.776 57.3887C155.531 57.2683 156.304 57.3176 157.038 57.533L173.136 62.2577Z" fill="white" stroke="#231F20" stroke-width="1.08" stroke-linecap="round" stroke-linejoin="round"/>
<path d="M163.766 59.4588C162.146 60.4772 159.576 62.1392 158.13 63.3053C158.082 63.345 158.035 63.3874 157.991 63.4323C157.774 63.6657 157.615 63.9461 157.525 64.2516C157.436 64.557 157.418 64.8791 157.474 65.1924C157.53 65.5058 157.658 65.8019 157.848 66.0574C158.038 66.3129 158.284 66.5208 158.568 66.6649C159.195 66.9921 159.829 67.2726 160.186 67.4254C160.483 67.5472 160.753 67.7274 160.979 67.9554C161.411 68.4039 161.73 69.1164 160.03 69.5262C159.445 69.6673 158.599 69.2392 158.097 69.0607C157.149 68.7454 156.144 68.6406 155.152 68.7534C154.159 68.8662 153.203 69.194 152.35 69.714C152.13 69.8437 150.422 71.0669 150.031 71.9164C149.219 73.6946 148.406 75.4693 147.593 77.2404C147.495 77.5279 147.311 77.7784 147.066 77.9579C146.712 78.169 146.259 78.0424 145.863 77.9105C142.623 76.8341 137.758 74.9187 134.392 73.3833C134.139 73.2696 133.931 73.0741 133.802 72.8283C133.672 72.5824 133.629 72.3003 133.68 72.0272C135.199 63.7908 145.826 57.6754 152.041 54.9791C155.323 53.5545 155.476 55.5121 154.052 56.4091C154.964 55.9559 155.936 55.6326 156.938 55.4488C157.364 55.4026 157.791 55.5133 158.141 55.7601C158.491 56.0068 158.738 56.3726 158.837 56.789C159.558 56.5956 160.316 56.5871 161.041 56.7642C161.766 56.9412 162.434 57.2982 162.985 57.802C163.183 57.839 163.379 57.8901 163.57 57.955C163.722 58.0033 163.857 58.0938 163.959 58.216C164.061 58.3381 164.126 58.4869 164.147 58.6448C164.167 58.8027 164.142 58.9631 164.075 59.1073C164.007 59.2515 163.9 59.3735 163.766 59.4588ZM150.912 58.24C151.914 57.5559 152.963 56.9441 154.052 56.4091L150.912 58.24ZM158.837 56.789C156.943 57.2111 155.133 58.5724 154.052 59.9495L158.837 56.789Z" fill="white"/>
<path d="M154.052 56.4091C155.476 55.5121 155.323 53.5545 152.041 54.9791C145.826 57.6754 135.199 63.7908 133.68 72.0272C133.629 72.3003 133.672 72.5824 133.802 72.8283C133.931 73.0741 134.139 73.2696 134.392 73.3833C137.758 74.9187 142.623 76.8341 145.863 77.9105C146.259 78.0424 146.712 78.169 147.066 77.9579C147.311 77.7784 147.495 77.5279 147.593 77.2404C148.406 75.4693 149.219 73.6946 150.031 71.9164C150.422 71.0669 152.13 69.8437 152.35 69.714C153.203 69.194 154.159 68.8662 155.152 68.7534C156.144 68.6406 157.149 68.7454 158.097 69.0607C158.599 69.2392 159.445 69.6673 160.03 69.5262C161.73 69.1164 161.411 68.4039 160.979 67.9554C160.753 67.7274 160.483 67.5472 160.186 67.4254C159.829 67.2726 159.195 66.9921 158.568 66.6649C158.284 66.5208 158.038 66.3129 157.848 66.0574C157.658 65.8019 157.53 65.5058 157.474 65.1924C157.418 64.8791 157.436 64.557 157.525 64.2516C157.615 63.9461 157.774 63.6657 157.991 63.4323C158.035 63.3874 158.082 63.345 158.13 63.3053C159.576 62.1392 162.146 60.4772 163.766 59.4588C163.9 59.3735 164.007 59.2515 164.075 59.1073C164.142 58.9631 164.167 58.8027 164.147 58.6448C164.126 58.4869 164.061 58.3381 163.959 58.216C163.857 58.0938 163.722 58.0033 163.57 57.955C163.379 57.8901 163.183 57.839 162.985 57.802C162.434 57.2982 161.766 56.9412 161.041 56.7642C160.316 56.5871 159.558 56.5956 158.837 56.789M154.052 56.4091C154.964 55.9559 155.936 55.6326 156.938 55.4488C157.364 55.4026 157.791 55.5133 158.141 55.7601C158.491 56.0068 158.738 56.3726 158.837 56.789M154.052 56.4091C152.963 56.9441 151.914 57.5559 150.912 58.24M158.837 56.789C156.943 57.2111 155.133 58.5724 154.052 59.9495" stroke="#231F20" stroke-width="1.08" stroke-linecap="round" stroke-linejoin="round"/>
<path d="M156.445 60.9901C156.765 60.4737 158.035 59.3204 159.22 58.7356C160.362 58.172 161.883 57.6966 162.985 57.8021" fill="white"/>
<path d="M156.445 60.9901C156.765 60.4737 158.035 59.3204 159.22 58.7356C160.362 58.172 161.883 57.6966 162.985 57.8021" stroke="#231F20" stroke-width="1.08" stroke-linecap="round" stroke-linejoin="round"/>
<path d="M132.46 92.0658C135.814 88.1431 138.858 83.8044 143.173 80.9733C146.186 79.0946 150.605 77.0899 150.4 72.9454C149.469 68.3883 141.999 62.3478 137.289 62.8056C135.556 63.2023 134.218 64.4746 134.667 65.9079C134.792 67.5997 132.485 68.2212 131.063 69.1454C124.803 73.0701 117.994 76.5101 112.149 80.6554C107.947 83.6359 105.131 86.5999 101.331 89.8507C100.037 90.9575 98.7214 92.0369 97.3538 93.051C92.131 96.924 84.5897 102.545 82.6455 107.433C108.044 92.2623 117.972 110.055 132.46 92.0658Z" fill="#F45D4A" stroke="#F45D4A" stroke-width="1.08" stroke-linecap="round" stroke-linejoin="round"/>
<path d="M172.541 84.9372C172.541 85.0033 172.522 85.0681 172.485 85.1231C172.448 85.1781 172.396 85.221 172.335 85.2464C172.274 85.2717 172.206 85.2783 172.141 85.2654C172.077 85.2525 172.017 85.2206 171.97 85.1738C171.923 85.127 171.891 85.0674 171.879 85.0024C171.866 84.9375 171.872 84.8702 171.898 84.8091C171.923 84.7479 171.966 84.6956 172.021 84.6589C172.076 84.6221 172.141 84.6024 172.207 84.6024C172.251 84.6024 172.294 84.6111 172.335 84.6279C172.375 84.6447 172.412 84.6694 172.443 84.7005C172.475 84.7316 172.499 84.7685 172.516 84.8091C172.533 84.8497 172.541 84.8932 172.541 84.9372ZM170.676 85.8074C170.676 85.9133 170.644 86.0168 170.585 86.1049C170.526 86.193 170.443 86.2616 170.345 86.3021C170.247 86.3427 170.139 86.3533 170.036 86.3326C169.932 86.312 169.836 86.261 169.761 86.1861C169.686 86.1112 169.635 86.0157 169.615 85.9119C169.594 85.808 169.605 85.7003 169.645 85.6025C169.686 85.5046 169.754 85.421 169.842 85.3621C169.931 85.3033 170.034 85.2719 170.14 85.2719C170.282 85.2719 170.418 85.3283 170.519 85.4287C170.619 85.5291 170.676 85.6653 170.676 85.8074ZM173.989 76.0797C173.989 76.1633 173.964 76.245 173.918 76.3145C173.871 76.384 173.805 76.4382 173.728 76.4702C173.651 76.5022 173.566 76.5106 173.484 76.4943C173.402 76.4779 173.326 76.4377 173.267 76.3786C173.208 76.3194 173.168 76.2441 173.152 76.1621C173.135 76.0801 173.144 75.9951 173.176 75.9179C173.208 75.8406 173.262 75.7746 173.331 75.7281C173.401 75.6817 173.483 75.6569 173.566 75.6569C173.622 75.6569 173.677 75.6678 173.728 75.6891C173.779 75.7103 173.826 75.7415 173.865 75.7807C173.904 75.82 173.935 75.8666 173.957 75.9179C173.978 75.9692 173.989 76.0241 173.989 76.0797ZM172.134 73.2824C172.134 73.3795 172.105 73.4744 172.052 73.5551C171.998 73.6359 171.921 73.6988 171.831 73.7359C171.742 73.7731 171.643 73.7828 171.548 73.7639C171.452 73.7449 171.365 73.6982 171.296 73.6295C171.228 73.5609 171.181 73.4734 171.162 73.3782C171.143 73.283 171.153 73.1843 171.19 73.0946C171.227 73.0049 171.29 72.9282 171.371 72.8742C171.451 72.8203 171.546 72.7915 171.643 72.7915C171.774 72.7915 171.898 72.8432 171.99 72.9353C172.083 73.0273 172.134 73.1522 172.134 73.2824Z" fill="#231F20"/>
<path d="M175.134 81.7992C175.4 81.7992 175.615 81.5836 175.615 81.3177C175.615 81.0518 175.4 80.8362 175.134 80.8362C174.868 80.8362 174.652 81.0518 174.652 81.3177C174.652 81.5836 174.868 81.7992 175.134 81.7992Z" fill="#231F20"/>
<path d="M167.721 70.9311C168.334 70.9311 168.83 70.4345 168.83 69.822C168.83 69.2095 168.334 68.7129 167.721 68.7129C167.109 68.7129 166.612 69.2095 166.612 69.822C166.612 70.4345 167.109 70.9311 167.721 70.9311Z" fill="#231F20"/>
<path d="M172.376 96.1128C172.376 96.296 172.322 96.4751 172.22 96.6275C172.119 96.7799 171.974 96.8986 171.805 96.9688C171.635 97.0389 171.449 97.0572 171.269 97.0215C171.089 96.9857 170.924 96.8975 170.795 96.7679C170.665 96.6384 170.577 96.4733 170.541 96.2935C170.505 96.1138 170.524 95.9275 170.594 95.7582C170.664 95.5889 170.783 95.4442 170.935 95.3424C171.088 95.2406 171.267 95.1863 171.45 95.1863C171.696 95.1863 171.931 95.2839 172.105 95.4576C172.279 95.6314 172.376 95.867 172.376 96.1128Z" fill="#231F20"/>
<path d="M117.482 91.3447C118.515 94.6591 116.454 99.8419 116.314 100.017C116.07 100.315 115.648 100.384 115.268 100.426C111.928 100.793 109.791 100.443 106.592 99.4196C106.292 99.3245 106.018 99.1637 105.788 98.9488C105.559 98.7339 105.38 98.4704 105.266 98.1776C105.151 97.8848 105.104 97.5701 105.127 97.2566C105.149 96.943 105.242 96.6385 105.398 96.3654C106.302 94.817 107.676 93.2046 107.974 91.8225C108.077 91.8737 108.179 91.9292 108.281 91.9803C108.466 92.0748 108.673 92.1179 108.881 92.1053C109.088 92.0926 109.288 92.0246 109.46 91.9082C109.632 91.7919 109.77 91.6316 109.859 91.444C109.948 91.2564 109.985 91.0483 109.966 90.8414C109.785 89.7294 109.301 88.6889 108.567 87.8341C107.807 86.9731 107.381 85.8685 107.364 84.7202C107.373 83.2998 108.047 82.9457 109.433 82.7324C109.127 81.9294 109.031 81.0615 109.155 80.2111C109.279 79.3607 109.619 78.5561 110.141 77.8739C110.981 76.799 112.274 76.0397 113.242 75.1055C114.471 75.7837 116.117 76.671 117.393 77.5497C117.636 77.716 117.862 77.8781 118.071 78.0445C119.897 79.4778 120.976 82.0201 120.976 84.4387C120.976 88.2138 116.86 89.3356 117.482 91.3447Z" fill="white" stroke="#231F20" stroke-width="1.08" stroke-linecap="round" stroke-linejoin="round"/>
<path d="M117.393 77.5498C116.118 76.6711 114.471 75.7838 113.243 75.1056C112.274 76.0398 110.982 76.7991 110.142 77.874C109.619 78.5562 109.28 79.3608 109.156 80.2112C109.032 81.0615 109.127 81.9295 109.433 82.7325C108.047 82.9458 107.373 83.2999 107.365 84.7203C107.381 85.8686 107.808 86.9732 108.567 87.8342C109.301 88.689 109.786 89.7295 109.967 90.8415C109.985 91.0484 109.948 91.2564 109.859 91.4441C109.77 91.6317 109.632 91.792 109.46 91.9083C109.288 92.0246 109.088 92.0927 108.881 92.1054C108.674 92.118 108.467 92.0749 108.282 91.9804C108.179 91.9293 108.077 91.8738 107.975 91.8226C106.056 90.8771 103.977 90.3026 101.845 90.1292C102.455 89.5319 101.444 88.4869 100.693 88.3504C100.46 88.3117 100.239 88.2196 100.047 88.0812C99.8554 87.9428 99.6984 87.7619 99.5883 87.5527C98.9314 86.2303 101.171 85.8294 100.851 84.8014C100.186 84.8112 99.5344 84.6118 98.9887 84.2314C98.443 83.851 98.0305 83.3088 97.8096 82.6813C98.799 82.7439 99.7837 82.4996 100.629 81.9818C100.173 79.721 99.8656 76.9782 101.619 75.4852C103.483 73.8941 106.912 74.5212 108.081 72.367C108.427 71.7272 108.474 70.9764 108.572 70.2555C108.973 67.3591 110.943 64.2111 114.143 64.6761C114.965 64.8182 115.736 65.1695 116.383 65.6962C117.03 66.2229 117.531 66.9072 117.837 67.6833C119.249 71.0148 118.097 74.2653 117.393 77.5498Z" fill="#231F20" stroke="#231F20" stroke-width="1.08" stroke-linecap="round" stroke-linejoin="round"/>
<path d="M175.453 113.511C175.602 115.572 177.406 114.849 178.502 114.257C180.486 113.038 182.3 111.561 183.895 109.865C184.499 109.176 185.287 109.082 185.646 109.32C186.84 110.113 182.894 115.694 180.907 116.446C183.591 115.539 185.781 113.498 187.269 111.816C188.06 110.922 188.812 110.629 189.297 111.116C190.958 112.783 185.37 117.549 183.75 118.464C186.391 117.77 188.976 116.019 190.75 114.4C191.321 113.879 191.987 113.978 192.181 114.14C193.861 115.545 187.789 120.647 185.544 120.992C187.128 120.385 188.626 119.574 190 118.58C190.582 118.149 191.668 117.466 192.037 118.168C192.749 119.524 185.171 127.314 175.135 129.654C174.156 129.882 171.98 124.945 171.496 124.069C170.499 122.264 171.16 120.762 171.82 120.047C172.855 118.925 172.303 115.948 172.471 113.497C172.606 111.526 173.24 110.172 174.093 110.073C175.174 109.948 175.303 111.448 175.453 113.511Z" fill="white" stroke="#231F20" stroke-width="1.08" stroke-linecap="round" stroke-linejoin="round"/>
<path d="M178.717 133.194C174.785 134.754 173.414 133.72 168.928 137.896C160.098 146.118 147.706 145.581 137.46 140.574C135.368 139.196 127.516 137.163 124.454 134.26C124.306 135.878 124.05 137.493 123.755 139.092C123.534 140.322 123.558 141.585 123.825 142.806C124.4 145.472 124.202 147.859 121.085 148.608C117.499 149.47 107.039 148.127 103.162 144.747C95.8381 147.688 86.7911 145.954 83.0652 141.529C77.9925 141.114 73.9561 137.45 77.9421 132.956C79.1646 131.496 80.7016 130.27 81.6175 128.597C84.0743 124.106 81.1828 118.638 81.1828 113.515C81.4002 101.929 95.0425 94.8774 105.716 96.0379C111.052 96.5075 116.067 98.6771 120.976 100.819C129.045 103.509 132.798 111.621 137.988 117.718C140.638 121.281 141.069 119.845 144.263 120.481C145.152 121.122 144.811 122.698 145.676 123.365C147.217 124.572 149.922 120.978 151.168 123.066C151.506 126.42 154.42 123.967 155.946 122.969C160.871 122.919 164.303 120.258 168.623 117.805C169.174 117.549 170.063 117.088 170.97 118.094C173.892 120.769 175.639 124.797 178.111 127.949C179.547 129.796 180.956 131.456 178.717 133.194Z" fill="#F45D4A" stroke="#F45D4A" stroke-width="1.08" stroke-linecap="round" stroke-linejoin="round"/>
<path d="M124.147 126.998C124.609 129.39 124.712 131.837 124.454 134.26M81.334 136.934C81.3289 138.626 81.9448 140.261 83.065 141.529M107.384 142.332C106.097 143.332 104.676 144.144 103.162 144.747M172.424 134.539C171.096 133.89 169.419 130.804 171.123 129.219C171.972 128.43 172.344 126.965 170.745 126.49M93.2104 98.0497C97.2116 96.3358 101.676 95.5987 105.715 96.0379C111.052 96.5075 116.067 98.6771 120.976 100.819" stroke="#231F20" stroke-width="1.08" stroke-linecap="round" stroke-linejoin="round"/>
</g>
<defs>
<clipPath id="clip0_791_3966">
<rect width="300" height="300" fill="white"/>
</clipPath>
</defs>
</svg>
