<svg width="30" height="30" viewBox="0 0 30 30" fill="none" xmlns="http://www.w3.org/2000/svg">
<g clip-path="url(#clip0_449_2812)">
<path d="M29.8951 15.1049C21.7343 15.1049 15.1049 21.7343 15.1049 29.8951C15.1049 29.958 15.0629 30 15 30C14.9371 30 14.8951 29.958 14.8951 29.8951C14.8951 21.7343 8.26573 15.1049 0.104895 15.1049C0.041958 15.1049 0 15.0629 0 15C0 14.9371 0.041958 14.8951 0.104895 14.8951C8.26573 14.8951 14.8951 8.26573 14.8951 0.104895C14.8951 0.041958 14.9371 0 15 0C15.0629 0 15.1049 0.041958 15.1049 0.104895C15.1049 8.26573 21.7343 14.8951 29.8951 14.8951C29.958 14.8951 30 14.9371 30 15C30 15.0629 29.958 15.1049 29.8951 15.1049Z" fill="white"/>
<path d="M21.7133 4.09091C23.9161 4.09091 25.6993 2.30769 25.6993 0.104895C25.6993 0.041958 25.7413 0 25.8042 0C25.8671 0 25.9091 0.041958 25.9091 0.104895C25.9091 2.30769 27.6923 4.09091 29.8951 4.09091C29.958 4.09091 30 4.13287 30 4.1958C30 4.25874 29.958 4.3007 29.8951 4.3007C27.6923 4.3007 25.9091 6.08392 25.9091 8.28671C25.9091 8.34965 25.8671 8.39161 25.8042 8.39161C25.7413 8.39161 25.6993 8.34965 25.6993 8.28671C25.6993 6.08392 23.9161 4.3007 21.7133 4.3007C21.6504 4.3007 21.6084 4.25874 21.6084 4.1958C21.6084 4.13287 21.6504 4.09091 21.7133 4.09091Z" fill="white"/>
<path d="M7.02802 25.9091C5.51753 25.9091 4.30075 27.1259 4.30075 28.6364C4.30075 28.6994 4.25879 28.7413 4.19585 28.7413C4.13292 28.7413 4.09096 28.6994 4.09096 28.6364C4.09096 27.1259 2.87417 25.9091 1.36368 25.9091C1.30075 25.9091 1.25879 25.8672 1.25879 25.8043C1.25879 25.7413 1.30075 25.6994 1.36368 25.6994C2.87417 25.6994 4.09096 24.4826 4.09096 22.9721C4.09096 22.9091 4.13292 22.8672 4.19585 22.8672C4.25879 22.8672 4.30075 22.9091 4.30075 22.9721C4.30075 24.4826 5.51753 25.6994 7.02802 25.6994C7.09096 25.6994 7.13292 25.7413 7.13292 25.8043C7.13292 25.8672 7.09096 25.9091 7.02802 25.9091Z" fill="white"/>
</g>
<defs>
<clipPath id="clip0_449_2812">
<rect width="30" height="30" fill="white"/>
</clipPath>
</defs>
</svg>
